PathFileType	4	(X/Y/Z)	Walk5.trc
DataRate	CameraRate	NumFrames	NumMarkers	Units	OrigDataRate	OrigDataStartFrame	OrigNumFrames
200.000000	200.000000	7	59	mm	200.000000	578	826
Frame#	Times		RCAR		LFHD		RFHD		RWRU		LMT1		RACR1		LTH3		RASI		LTB1		RUA1		RFA1		LACR1		LLFC		LUA1		LTB4		LTB3		LToe		RTH2		STRN		LTH4		RBHD		LTH2		LElbow		RTH4		RLFC		CLAV		LASI		RTH3		LWRU		LFA1		RBack		C7		RTH1		RMT1		RMT5		LPSI		LCAR		RCAL		RToe		RLMAL		LTH1		LBHD		RPSI		RTB2		RTB4		RTB1		RElbow		RTB3		RMMAL		LTB2		LMT5		LWRR		RWRR		RElbowM		LLMAL		LMMAL		T10		LCAL		LElbowM
			X1	Y1	Z1	X2	Y2	Z2	X3	Y3	Z3	X4	Y4	Z4	X5	Y5	Z5	X6	Y6	Z6	X7	Y7	Z7	X8	Y8	Z8	X9	Y9	Z9	X10	Y10	Z10	X11	Y11	Z11	X12	Y12	Z12	X13	Y13	Z13	X14	Y14	Z14	X15	Y15	Z15	X16	Y16	Z16	X17	Y17	Z17	X18	Y18	Z18	X19	Y19	Z19	X20	Y20	Z20	X21	Y21	Z21	X22	Y22	Z22	X23	Y23	Z23	X24	Y24	Z24	X25	Y25	Z25	X26	Y26	Z26	X27	Y27	Z27	X28	Y28	Z28	X29	Y29	Z29	X30	Y30	Z30	X31	Y31	Z31	X32	Y32	Z32	X33	Y33	Z33	X34	Y34	Z34	X35	Y35	Z35	X36	Y36	Z36	X37	Y37	Z37	X38	Y38	Z38	X39	Y39	Z39	X40	Y40	Z40	X41	Y41	Z41	X42	Y42	Z42	X43	Y43	Z43	X44	Y44	Z44	X45	Y45	Z45	X46	Y46	Z46	X47	Y47	Z47	X48	Y48	Z48	X49	Y49	Z49	X50	Y50	Z50	X51	Y51	Z51	X52	Y52	Z52	X53	Y53	Z53	X54	Y54	Z54	X55	Y55	Z55	X56	Y56	Z56	X57	Y57	Z57	X58	Y58	Z58	X59	Y59	Z59

578	2.89	-373.08	777.99	289.31	-163.04	1570.6	-76.836	-160.93	1569.3	20.613	-406.54	837.93	304.77	-300.5	35.449	-51.34	-306.22	1373.9	144.57	-312.02	556.3	-181.17	-226.4	960.3	159.35	-352.23	332.23	-66.624	-362.99	1236.4	229.94	-373.75	941.64	278.99	-267.75	1351.2	-211.93	-353.64	487.11	-170.77	-272.02	1206.4	-293.47	-369.74	248.76	-73.192	-381.37	163.71	-75.555	-255.74	29.819	-51.618	-177.74	663.69	182.97	-156.58	1213.9	-8.1545	-287.92	636.54	-207.42	-331.48	1565.3	32.935	-239.94	631.85	-171.88	-309.66	1061.9	-337.39	-233.59	646.52	198.1	-190.5	475.94	179.82	-217.05	1332.8	-27.94	-216.25	951.45	-200.05	-209.9	563.26	185.77	-212.9	838.79	-381.47	-224.06	954.96	-350.08	-441.04	1315.1	56.75	-375.11	1412.5	-33.16	-248.8	728.8	213.72	-56.399	57.031	117.18	-85.076	47.803	197.16	-453.75	979.01	-124.66	-166.4	801.56	-372.15	-243.19	37.901	116.35	-19.723	64.058	134.73	-201.93	79.198	170.08	-260.2	712.26	-234.15	-315.13	1555	-101.97	-472.63	974.17	7.6796	-164.8	292.02	174.71	-141.33	283.73	117.61	-123.81	368.36	114.61	-422.58	1076.9	262.68	-148.03	199.93	122.01	-168.83	90.057	91.075	-366.41	252.02	-134.42	-313.99	24.789	-142.78	-177.98	845.25	-315.34	-362.76	835.59	243.96	-450.28	1065.2	174.61	-430.05	70.351	-136.81	-423.77	74.863	-52.355	-437.68	1083	-42.347	-488.95	32.02	-98.652	-335.7	1022	-239.92
579	2.895	-369.51	777.5	289.78	-158.73	1570.1	-76.253	-156.66	1568.7	21.205	-402.89	837.49	305.22	-300.47	35.471	-51.411	-302.12	1373.4	145.04	-309.54	556.1	-180.95	-221.78	959.63	159.54	-350.78	332.08	-66.461	-358.88	1236	230.4	-369.94	941.14	279.4	-263.45	1350.8	-211.37	-351.5	487.09	-170.49	-266.5	1206.1	-292.9	-368.66	248.67	-73.114	-380.74	163.7	-75.55	-255.63	29.758	-51.675	-173.58	662.7	182.56	-152.43	1213.5	-7.9649	-285.22	636.24	-207.28	-327.21	1564.7	33.449	-237.11	631.33	-172.02	-303.39	1061.6	-337.29	-229.36	645.73	198.14	-186.41	474.93	179.57	-212.92	1332.3	-27.512	-212.57	951.23	-200.09	-206	562.48	185.76	-204.53	839.33	-380.82	-216.89	955.35	-349.43	-436.9	1314.5	57.203	-370.97	1412	-32.702	-244.28	728.02	213.92	-39.443	59.739	117.68	-67.164	49.904	197.88	-449.91	978.33	-123.53	-157.78	802.48	-371.16	-225.6	35.286	118.48	-2.8972	67.888	134.84	-185.1	77.895	171.73	-257.29	711.87	-234.1	-310.82	1554.5	-101.45	-468.25	973.34	8.7945	-154.77	291.98	175.04	-131.55	284.08	117.9	-116.7	369.21	114.29	-418.58	1076.4	263.13	-135.44	200.1	122.76	-152.95	89.443	92.419	-365.35	252	-134.35	-313.98	24.737	-142.82	-170.11	846.03	-314.45	-359.15	835.07	244.38	-446.33	1064.8	175.07	-429.9	70.583	-136.84	-423.55	75.065	-52.38	-433.61	1082.5	-41.631	-488.87	32.361	-98.677	-329.78	1021.4	-240.02
580	2.9	-365.87	777	290.27	-154.42	1569.5	-75.631	-152.39	1568	21.837	-399.15	837.02	305.69	-300.44	35.488	-51.478	-298.02	1372.8	145.54	-307.1	555.91	-180.75	-217.14	958.93	159.74	-349.3	331.94	-66.296	-354.75	1235.5	230.9	-366.06	940.62	279.84	-259.19	1350.5	-210.79	-349.35	487.07	-170.21	-260.98	1205.8	-292.26	-367.56	248.59	-73.028	-380.09	163.7	-75.543	-255.52	29.696	-51.733	-169.52	661.6	182.17	-148.26	1213.1	-7.8089	-282.56	635.95	-207.15	-322.95	1564.2	34.003	-234.32	630.82	-172.21	-297.12	1061.3	-337.13	-225.23	644.85	198.22	-182.41	473.85	179.35	-208.8	1331.8	-27.076	-208.86	951.03	-200.12	-202.24	561.6	185.81	-196.21	839.91	-380.11	-209.78	955.77	-348.73	-432.75	1314	57.698	-366.86	1411.5	-32.206	-239.81	727.16	214.14	-22.835	62.706	117.93	-49.5	52.256	198.37	-446.04	977.63	-122.36	-149.24	803.42	-370.11	-208.22	33.018	120.57	13.568	71.948	134.66	-168.45	76.913	173.28	-254.43	711.47	-234.09	-306.51	1554.1	-100.88	-463.82	972.49	9.9535	-144.85	292.07	175.3	-121.94	284.54	118.09	-109.75	370.08	113.88	-414.54	1076	263.63	-123.06	200.46	123.39	-137.33	89.13	93.654	-364.28	251.99	-134.26	-313.97	24.69	-142.86	-162.28	846.84	-313.53	-355.46	834.53	244.81	-442.35	1064.4	175.57	-429.74	70.837	-136.87	-423.32	75.283	-52.393	-429.52	1081.8	-40.869	-488.78	32.733	-98.69	-323.92	1020.9	-240.09
581	2.905	-362.15	776.46	290.76	-150.12	1568.9	-74.971	-148.13	1567.4	22.508	-395.33	836.53	306.2	-300.4	35.503	-51.54	-293.92	1372.3	146.06	-304.67	555.73	-180.55	-212.48	958.21	159.94	-347.78	331.8	-66.128	-350.6	1235	231.45	-362.12	940.09	280.3	-254.99	1350.2	-210.18	-347.2	487.06	-169.92	-255.47	1205.5	-291.55	-366.43	248.52	-72.931	-379.42	163.7	-75.531	-255.41	29.634	-51.791	-165.53	660.4	181.82	-144.06	1212.7	-7.6807	-279.94	635.66	-207.05	-318.69	1563.7	34.596	-231.54	630.31	-172.42	-290.85	1061	-336.91	-221.18	643.89	198.33	-178.47	472.73	179.14	-204.67	1331.4	-26.629	-205.13	950.86	-200.14	-198.58	560.62	185.92	-187.95	840.52	-379.36	-202.7	956.21	-347.97	-428.6	1313.4	58.233	-362.78	1410.9	-31.671	-235.38	726.21	214.37	-6.624	65.89	117.94	-32.149	54.828	198.65	-442.15	976.91	-121.16	-140.75	804.4	-369.03	-191.11	31.09	122.59	29.626	76.192	134.22	-152.05	76.242	174.73	-251.62	711.07	-234.11	-302.21	1553.6	-100.28	-459.34	971.63	11.15	-135.04	292.28	175.48	-112.51	285.1	118.18	-102.94	370.96	113.37	-410.45	1075.5	264.16	-110.92	201	123.9	-122.01	89.102	94.78	-363.19	251.99	-134.17	-313.97	24.649	-142.89	-154.51	847.68	-312.57	-351.71	833.97	245.27	-438.34	1064	176.11	-429.57	71.114	-136.88	-423.08	75.518	-52.392	-425.41	1081.2	-40.063	-488.69	33.137	-98.691	-318.13	1020.4	-240.11
582	2.91	-358.36	775.9	291.27	-145.83	1568.3	-74.273	-143.87	1566.7	23.219	-391.43	836.02	306.73	-300.36	35.514	-51.598	-289.81	1371.7	146.6	-302.26	555.54	-180.35	-207.79	957.47	160.14	-346.22	331.65	-65.957	-346.45	1234.5	232.04	-358.11	939.53	280.8	-250.84	1349.9	-209.54	-345.04	487.05	-169.62	-249.97	1205.3	-290.78	-365.28	248.45	-72.825	-378.74	163.72	-75.512	-255.3	29.573	-51.849	-161.63	659.09	181.5	-139.84	1212.4	-7.5743	-277.34	635.37	-206.95	-314.44	1563.2	35.229	-228.78	629.82	-172.67	-284.6	1060.8	-336.64	-217.21	642.85	198.49	-174.56	471.56	178.95	-200.55	1330.9	-26.17	-201.36	950.71	-200.14	-195.02	559.54	186.07	-179.75	841.17	-378.56	-195.68	956.69	-347.15	-424.46	1312.7	58.807	-358.73	1410.4	-31.099	-230.99	725.19	214.62	9.1454	69.244	117.75	-15.175	57.582	198.73	-438.23	976.18	-119.93	-132.33	805.4	-367.9	-174.32	29.491	124.54	45.231	80.568	133.54	-135.96	75.867	176.08	-248.85	710.67	-234.15	-297.91	1553.1	-99.646	-454.82	970.75	12.378	-125.37	292.61	175.58	-103.27	285.75	118.17	-96.256	371.85	112.77	-406.32	1075	264.74	-99.053	201.7	124.29	-107.04	89.336	95.795	-362.09	251.99	-134.08	-313.97	24.611	-142.91	-146.79	848.54	-311.57	-347.88	833.4	245.75	-434.29	1063.6	176.7	-429.39	71.415	-136.88	-422.84	75.771	-52.374	-421.29	1080.5	-39.216	-488.58	33.573	-98.675	-312.38	1019.9	-240.1
583	2.915	-354.49	775.3	291.79	-141.54	1567.7	-73.537	-139.61	1566	23.968	-387.45	835.47	307.29	-300.31	35.522	-51.654	-285.7	1371.1	147.16	-299.86	555.36	-180.16	-203.07	956.73	160.34	-344.63	331.51	-65.781	-342.28	1234	232.67	-354.04	938.95	281.33	-246.73	1349.5	-208.88	-342.87	487.04	-169.31	-244.49	1205	-289.95	-364.1	248.39	-72.71	-378.03	163.74	-75.485	-255.18	29.513	-51.907	-157.78	657.7	181.23	-135.6	1212.1	-7.4833	-274.76	635.09	-206.87	-310.2	1562.6	35.902	-226.03	629.33	-172.93	-278.37	1060.6	-336.3	-213.31	641.73	198.67	-170.65	470.37	178.77	-196.43	1330.4	-25.697	-197.56	950.59	-200.11	-191.52	558.37	186.27	-171.61	841.86	-377.72	-188.71	957.18	-346.28	-420.31	1312.1	59.421	-354.69	1409.7	-30.49	-226.65	724.09	214.88	24.429	72.715	117.39	1.3516	60.474	198.65	-434.27	975.43	-118.69	-123.98	806.42	-366.73	-157.93	28.203	126.39	60.343	85.019	132.69	-120.24	75.767	177.31	-246.09	710.28	-234.2	-293.63	1552.6	-98.968	-450.26	969.85	13.63	-115.83	293.04	175.6	-94.217	286.47	118.05	-89.702	372.73	112.06	-402.14	1074.4	265.36	-87.483	202.53	124.57	-92.464	89.804	96.703	-360.97	252	-133.97	-313.98	24.578	-142.93	-139.12	849.42	-310.53	-343.97	832.81	246.25	-430.21	1063.1	177.33	-429.21	71.738	-136.86	-422.58	76.042	-52.34	-417.15	1079.8	-38.328	-488.47	34.042	-98.642	-306.69	1019.5	-240.04
584	2.92	-350.54	774.68	292.32	-137.26	1567	-72.763	-135.36	1565.3	24.755	-383.39	834.89	307.88	-300.26	35.529	-51.708	-281.59	1370.6	147.76	-297.45	555.19	-179.96	-198.32	955.97	160.54	-343	331.36	-65.6	-338.11	1233.5	233.34	-349.9	938.34	281.89	-242.67	1349.2	-208.2	-340.69	487.04	-168.99	-239.03	1204.8	-289.06	-362.9	248.34	-72.586	-377.31	163.78	-75.448	-255.06	29.454	-51.965	-153.98	656.23	181.01	-131.33	1211.8	-7.4011	-272.18	634.8	-206.79	-305.96	1562	36.616	-223.28	628.84	-173.21	-272.17	1060.4	-335.91	-209.46	640.54	198.9	-166.72	469.17	178.6	-192.32	1329.9	-25.207	-193.73	950.48	-200.06	-188.07	557.11	186.49	-163.53	842.58	-376.84	-181.8	957.7	-345.35	-416.16	1311.4	60.075	-350.67	1409.1	-29.845	-222.34	722.91	215.16	39.184	76.246	116.9	17.364	63.458	198.42	-430.28	974.67	-117.43	-115.7	807.47	-365.52	-142.01	27.202	128.13	74.92	89.482	131.69	-104.95	75.912	178.44	-243.34	709.88	-234.27	-289.35	1552.1	-98.251	-445.66	968.94	14.901	-106.46	293.57	175.53	-85.373	287.24	117.82	-83.266	373.6	111.26	-397.92	1073.9	266.02	-76.236	203.48	124.73	-78.329	90.471	97.502	-359.84	252.02	-133.86	-313.99	24.549	-142.94	-131.52	850.33	-309.46	-339.99	832.19	246.77	-426.09	1062.6	178	-429.02	72.084	-136.82	-422.31	76.332	-52.288	-412.99	1079.1	-37.402	-488.35	34.545	-98.59	-301.04	1019	-239.94
